<svg xmlns="http://www.w3.org/2000/svg" viewBox="0 0 723.68 327.88"><defs><style>.cls-1{fill:#fff;}</style></defs><title>Asset 1</title><g id="Layer_2" data-name="Layer 2"><g id="Layer_1-2" data-name="Layer 1"><g id="Layer_2-2" data-name="Layer 2"><g id="Слой_4" data-name="Слой 4"><path class="cls-1" d="M4.5,327.88,3,320c30.69-5.81,44.14-8.39,50.88-9.68s6.79-1.3,10.48-1.94c12.09-2.08,88.2-15.54,143.77-25.36L268,272.46l.36-.06c7.67-1.33,13.21-2.3,17.9-12.44,1.87-4,3.4-7.55,4.75-10.64.79-1.81,1.52-3.49,2.24-5.07,1.8-4,2.81-7.1,1.55-16-.44-3.13-1.34-9.07-2.37-15.76-6.38,1.13-12.73,2.19-16.49,2.73-9.43,1.38-12.12-.25-16-4.28-.51-.54-1.08-1.13-1.77-1.77-2.55-2.4-9.83-10-18.15-18.82l-5.14,13.76c-2.41,6.44-7.67,13.61-15.19,14.41-2.15.23-19.33,1.43-34.06,2.45l-3.42.24c-4.59.32-7-1.51-8.22-3.1-3.05-4-1.43-10.09.06-14.33,4.27-12.19,14.56-41.6,17.82-51.29,1.94-5.77,5.35-7.66,7.87-8.24,2.86-.65,7.43-.23,13,5.5,1.86,1.91,7.44,7.85,14.5,15.37L237,175.46c5-13.51,8.58-23.32,10.68-29.28,1.95-5.55,5.08-7.41,7.36-8,3.45-.88,7.16.45,11,3.95,4.7,4.25,18.49,16.92,21.79,20.21,3.84,3.81,6.24,9.08,7.35,16.1,0,.22,1.94,12.31,3.86,24.67,4.42-.83,8.19-1.59,10.15-2.08l.76-.19c4.39-1.08,6-1.63,6.86-3.48.63-1.37,2.19-4.94,4.61-10.64l.17-.41.47-1.09c1.54-3.48,1.91-4.31-3.29-8.21-9.13-6.87-16.78-13.17-23.53-18.73l-1.44-1.19c-7-5.72-10-14.5-7.36-21.35,3.39-8.89,9.77-9.58,18.4-9.58,13.59,0,14.37-2.25,15.77-6.33,1.18-3.45.48-4.67.25-5.07-.94-1.61-3.91-2.95-8.38-3.79-6-1.12-10.69-4-13-7.8a10.51,10.51,0,0,1-.88-8.91c1.56-4.64,5.73-10.19,16.79-10.26h33.17c3.6,0,4.79,0,7.2-5,.55-1.16,1.07-2.33,1.59-3.5,3.08-6.93,6.56-14.78,15-15h1.13c6.13-.16,11.91-.31,14.77,3.69,2.54,3.55.93,7.92.4,9.36-1.77,4.8-45.82,116.18-47.7,120.92-2.6,6.57-.71,8.05,0,8.61,1.27,1,33.75,24.74,39.28,28.52a12.66,12.66,0,0,0,3.16,1.72,11,11,0,0,0,.68-2.87v-.33c.65-4.92,4-30,21-156.43,1.26-9.35,7-10.57,9.38-10.66.46,0,7,0,8.54,0,2.61,0,5.86.4,7.87,2.93,2.24,2.81,1.42,6.57,1.16,7.8-.37,1.72-.82,3.26-1.29,4.89s-1,3.6-1.64,6.15c-.51,2.15-.34,4,.45,5A4.48,4.48,0,0,0,433,91.13l8-.13c1.35,0,4.53,0,6.24,2.47s.67,5.05-.41,7.79l-.45,1.16c-3.26,8.48-24.06,61.23-32.85,83.52l-.16.41c-1.72,4.37-1.44,6.61-1,7.17.22.32,1,.52,2.15.5,7-.1,28.79-2,35.86-2.64,1-.09,3.72-.34,4.07-6.33.69-12,5.66-63.92,7.17-79.55.66-6.86,4.92-11,11.39-11.15H496.8c1.57,0,5.75,0,8,3.19s1.22,7.16.11,10.34c-.14.41-2,5.45-5.86,15.9-8,21.68-22.91,62-24.5,66.69l-.23.66c-2.07,6-2.28,8.17.43,10.19h0s7.11,5.05,35.66,26.15a5.25,5.25,0,0,0,1.57.88,6.58,6.58,0,0,0,1-2.42c1.83-7.24,9.48-35.93,17.69-66.55l-6.59-1-1.71-.26c-5.13-.8-7.77-3.4-9.08-5.43-2.17-3.37-2.54-8-1.06-13.26.35-1.24,8.5-30.39,10.41-36,3.08-9.12,9.57-9,12.7-9h12.83c3-11.26,5.18-19.12,5.7-21,2.36-8.35,7.3-8.62,8.76-8.5,2.89.23,6.22,2.66,6.93,8.77.09.8.15,1.39.21,2,.15,1.56.34,3.5,1.19,10l.2,1.5c.68,5.07,1.22,9.07-1.43,12.13-2.31,2.67-5.92,3-8.44,3h-7c-3.83,14.22-8.73,32.4-13.6,50.55,5.91,1,13.65,2.25,23.8,4,8.14,1.39,13,6.9,13.35,15.1.72,17.11,2.23,39.49,2.69,45.7l.07,1c.4,5.58.53,7.26,5.2,11.17,8.24,6.91,28.86,24.49,44.7,38,4.87,4.16,11.68,4.14,18.22-.08,1.38-.89,21.54-14.12,56.78-37.26l1.86-1.22c5.17-3.39,8.14-7.18,8.38-10.67.21-3-1.53-6.12-5.15-9.28-23.5-20.5-60.61-53.53-82.79-73.27-7-6.26-12.56-11.18-15.65-13.92-5.41-4.79-10.83-10.84-12.54-27.34-.85-8.24-1.58-14.7-2.16-19.9-.7-6.29-1.16-10.44-1.37-13.34-.24-3.26.1-7.83,3-11.06a9.71,9.71,0,0,1,7.15-3.15h15.1c.38,0,1.31,0,1.61-.44.11-.15,1-1.59-.36-6.6l-3.2-11.08-2.79-9.68c-2.33-8.08-4-11.47-7.9-11.53h-57.4c-5,0-7.88,1.93-9.35,6.26-9,26.38-16.24,47.28-19.72,57.17-1.36,3.85-4.61,7.54-8.76,7.12s-6.53-4.16-7.47-11.14c-.23-1.67-.38-2.56-.52-3.44s-.24-1.45-.4-2.53c-.3-2.14-.87-6.11-11.64-6.11H472.34c-9.18,0-14.2-3.72-14.92-11.06-1-9.75-3.49-20.15-21.51-20.22H384.33c-4.57-.12-7.75.08-10.25,3.86-.73,1.09-1.45,2.29-2.22,3.56-4.28,7.08-10.15,16.78-23.07,16.9H306.21c-6,0-12.08.5-14.51,6.48-2.23,5.49-19.25,51.8-25.62,69.18-1.3,3.54-3.64,5.89-6.6,6.62-1.73.43-5.21.61-9.1-2.92-.1-.09-5.37-5-10.67-9.84-3.22-2.93-4.75-9.1-.92-16.29,1-1.83,2.05-3.77,3.33-6.06,2.82-5.07,6.69-12,12.66-23.64,2.41-4.68,2.12-8.06-1-12L253.1,59c-1.7-2.12-6.21-7.75-28.62-36.49l-.87-1.12C219,15.48,213.29,8.09,204.76,8c-.24,0-29.53.08-38.15,0h-.13c-6.28,0-10.24,2.44-12.82,7.89L126.39,74.7l-3.09,6.66c-1.7,3.67-2.21,6.67-1.36,8,.65,1,2.64,1.63,5.47,1.65h37.43c7.42-18.43,13-32.27,13.78-34.11,3-7.16,7.14-9,10.06-9.23,4-.35,8.14,2,11,6.41s4.88,7.46,6.74,10.26c2.08,3.13,3.73,5.6,5.37,8.25,3.77,6.09,4,11.75.71,18.94C209.07,99,201.53,99,199.05,99h-28.8C153.19,141.38,128.41,203,128,204l-.09.27c-3.87,11.06-10.08,14.6-14.61,15.62-5.41,1.22-33.58,6.17-33.86,6.21A12.87,12.87,0,0,0,69,235.87c-2,7.5-9.28,40.28-11.91,52.27-2.14,9.77-8.53,16.45-17.52,18.32-3.59.75-10.58,2-18,3.31-7.06,1.26-14.36,2.56-20.09,3.66L0,305.57c5.79-1.12,13.12-2.42,20.2-3.68,7.34-1.31,14.28-2.54,17.75-3.26,5.85-1.22,9.87-5.55,11.33-12.2,2.64-12,9.94-45,12-52.63A20.85,20.85,0,0,1,78.1,218.22c5.54-1,28.91-5.11,33.47-6.14,2.56-.58,6.16-2.86,8.82-10.46l.22-.61c.36-.9,24-59.73,41-102H127.36c-5.85,0-9.94-1.86-12.17-5.37C112.74,89.78,113,84.51,116,78l3.09-6.66L146.37,12.5c4-8.28,10.71-12.5,20.11-12.5h38.31c12.46.13,20.09,10,25.14,16.52l.85,1.09c22.39,28.7,26.87,34.3,28.56,36.41l.69.86c5.08,6.45,5.69,13.21,1.86,20.66-6,11.73-9.93,18.75-12.78,23.87-1.25,2.25-2.3,4.14-3.26,5.93-2,3.75-1.25,6.16-.75,6.62,5.34,4.86,10.65,9.82,10.7,9.87a3.36,3.36,0,0,0,1.78,1,3.11,3.11,0,0,0,1-1.6c.23-.63,23-62.69,25.72-69.44C289,40.36,301,40.36,306.21,40.36H348.7c8.44-.08,12.25-6.38,16.28-13,.78-1.28,1.58-2.61,2.39-3.84,5.14-7.8,12.63-7.59,17.13-7.52H436c26.74.11,28.77,20.68,29.43,27.44.18,1.8.38,3.85,7,3.85h21.08c11.75,0,18.33,4.37,19.56,13,.14,1,.25,1.66.37,2.33.16.94.32,1.9.56,3.69a21,21,0,0,0,.57,2.9q.1-.22.19-.47c3.47-9.86,10.72-30.73,19.69-57.09C536.94,4.18,543,0,551.29,0h57.55c10.54.15,13.52,10.48,15.5,17.32L627.12,27l3.21,11.12c1.71,6,1.39,10.5-1,13.61-1.25,1.65-3.65,3.61-8,3.61h-15a1.7,1.7,0,0,0-1.36.52c-.6.67-1.18,2.36-1,5.11s.66,6.84,1.35,13c.58,5.21,1.3,11.7,2.16,20,1.53,14.78,6.36,19.06,9.89,22.18L633,130.08c22.17,19.73,59.27,52.74,82.73,73.22,7,6.1,8.14,12,7.88,15.86-.42,6.13-4.56,11.94-12,16.81l-1.86,1.22C674,260.67,654.37,273.57,653,274.48c-9.52,6.14-20.15,5.92-27.75-.57-22.7-19.39-38.14-32.52-44.64-38-7.27-6.09-7.59-10.55-8-16.73l-.07-.94c-.35-4.64-1.93-27.42-2.71-46-.19-4.46-2.26-6.79-6.71-7.55-10.59-1.81-18.55-3.13-24.53-4.11-8.28,30.87-16,59.95-17.88,67.24-1.09,4.3-3.13,7-6.06,8.06-1.92.69-5,.89-9-2-28.46-21-35.55-26.06-35.62-26.11-7.91-5.88-5-14.26-3.29-19.27l.22-.64c1.62-4.74,16-43.63,24.57-66.87,3.16-8.56,5.65-15.31,5.81-15.77a13.45,13.45,0,0,0,.73-2.83,10.7,10.7,0,0,0-1.31-.07H473.08c-1.58,0-3.18.36-3.53,3.92-1.07,11.1-6.45,67.06-7.15,79.24-.47,8.18-4.59,13.22-11.32,13.84-7.67.71-29.18,2.56-36.48,2.67-5,.06-7.57-2.11-8.84-3.95-2.33-3.37-2.27-8.44.18-14.66l.16-.41c8.79-22.28,29.58-75,32.83-83.45l.2-.52-5.93.06h-.1c-5.25-.08-8.17-2.41-9.68-4.36-2.32-3-3-7.14-1.93-11.73.65-2.74,1.23-4.75,1.74-6.53.45-1.56.84-2.91,1.16-4.36a9.2,9.2,0,0,0,.16-.94,12.45,12.45,0,0,0-1.47-.09c-2.11,0-7.76-.06-8.19-.05-.86,0-1.46,2-1.69,3.74-17,126.4-20.39,151.48-21,156.4v.35c-.42,3.17-1.43,7.58-5.26,9.29s-8.17-.64-11-2.59c-5.8-4-38.47-27.86-39.7-28.83-4.85-3.8-5.7-9.81-2.52-17.86.46-1.16,45.89-116,47.63-120.75a7.14,7.14,0,0,0,.49-1.91c-1.34-.54-5.28-.44-7.94-.37h-1.14c-3.12.07-5,3.91-7.86,10.22-.54,1.23-1.1,2.47-1.67,3.68C359,91.16,354.51,92,349,92H315.56c-6.74,0-8.45,2.45-9.24,4.8a2.6,2.6,0,0,0,.19,2.31c1,1.76,4,3.33,7.52,4,7.08,1.32,11.6,3.82,13.82,7.62,1.87,3.21,2,7,.41,11.69-3.42,10-10.25,11.73-23.33,11.73-8.85,0-9.62,1-10.93,4.42s.78,8.87,5,12.32l1.45,1.19c7,5.78,14.26,11.75,23.25,18.51,9.49,7.15,8.24,12.31,5.79,17.84l-.43,1-.17.41c-.92,2.15-3.71,8.7-4.72,10.88-2.55,5.49-7.45,6.7-12.2,7.87l-.75.18c-2.14.53-6.18,1.34-10.87,2.22,1,6.81,2,12.89,2.42,16.08,1.41,10,.38,14.75-2.18,20.43-.7,1.56-1.42,3.21-2.2,5-1.37,3.13-2.92,6.68-4.82,10.79-6.44,14-15.66,15.55-23.79,17l-.36.06L209.55,290.9C154,300.74,77.84,314.2,65.73,316.28c-3.62.62-3.75.65-10.33,1.91S35.2,322.06,4.5,327.88ZM180.36,213.13a4.11,4.11,0,0,0,1.31.06l3.43-.24c7.79-.54,31.49-2.18,33.76-2.42,3.63-.39,7-5.07,8.54-9.26q3.53-9.42,6.51-17.44l-12.47-13.27c-6.75-7.19-12.59-13.4-14.4-15.26-2.86-2.93-4.81-3.44-5.51-3.28s-1.5,1.31-2.07,3c-3.15,9.38-12.54,36.22-17.85,51.38C180,211,180.25,212.69,180.36,213.13ZM243.16,182c9.32,9.88,17.82,18.81,20.52,21.35.81.76,1.47,1.45,2,2.05,2.31,2.4,2.73,2.83,9.08,1.91,3.66-.53,10-1.6,16.42-2.73-1.93-12.41-3.86-24.63-3.89-24.85-.83-5.28-2.5-9.1-5.09-11.68-3.1-3.08-16.7-15.59-21.52-19.95-2.17-2-3.4-2.2-3.69-2.12s-1,.69-1.78,2.88C253,155.36,248.91,166.47,243.16,182Zm291.46-79.58c-2.17,0-3.26.27-4.38,3.57-1.47,4.36-7.37,25.21-10.28,35.63-.84,3-.81,5.4.08,6.78.23.36.93,1.44,3.59,1.86l1.68.26c1.61.24,4,.6,7.48,1.15,4.71-17.54,9.45-35.17,13.26-49.28H534.63Zm21.86-8h4.76a7.41,7.41,0,0,0,2.44-.3c.24-.94-.14-3.73-.42-5.79l-.2-1.54c-.86-6.65-1.06-8.66-1.22-10.27a12.43,12.43,0,0,0-.13-1.3l-.11.38c-.5,1.67-2.39,8.66-5.12,18.76Zm-367-38.71h-.08c-.74.07-2.08,1.25-3.39,4.37-.71,1.69-5.73,14.11-12.53,31h25.58c4.1,0,5.32-1,6.15-2.8,2.45-5.38,1.84-8.07-.23-11.42-1.57-2.54-3.18-5-5.23-8-1.78-2.67-4-6-6.8-10.35-1.16-1.84-2.64-2.86-3.47-2.86Z"/></g></g></g></g></svg>