<svg xmlns="http://www.w3.org/2000/svg" xmlns:xlink="http://www.w3.org/1999/xlink" width="28" height="28" viewBox="0 0 28 28">
    <defs>
        <path id="a" d="M0 .118h27.874v19.754H0z"/>
    </defs>
    <g fill="none" fill-rule="evenodd">
        <mask id="b" fill="#fff">
            <use xlink:href="#a"/>
        </mask>
        <path fill="#FFF" d="M18.972 1.078a13.643 13.643 0 0 0-5.035-.96c-3.723 0-7.222 1.479-9.855 4.164C1.45 6.968 0 10.54 0 14.338c0 1.764.317 3.493.941 5.138a.612.612 0 0 0 .322.343c.149.066.314.07.466.01a.63.63 0 0 0 .347-.805 13.14 13.14 0 0 1 .225-9.93c1.373-3.172 3.874-5.608 7.042-6.86 6.54-2.584 13.921.742 16.454 7.415a13.198 13.198 0 0 1 0 9.376.632.632 0 0 0 .01.475.608.608 0 0 0 1.126-.025c2.775-7.311-.796-15.565-7.961-18.397" mask="url(#b)"/>
        <path fill="#FFF" d="M23.189 22.505a12.779 12.779 0 0 1-9.524 4.26h-.023a12.78 12.78 0 0 1-9.525-4.26.281.281 0 0 1-.03-.333c.793-1.302 2.844-2.583 5.354-3.343a.283.283 0 0 1 .27.06 5.897 5.897 0 0 0 7.884 0 .282.282 0 0 1 .27-.06c2.512.762 4.563 2.043 5.355 3.343a.282.282 0 0 1-.031.333m-14.74-9.866c.001-3.028 1.61-6.083 5.205-6.083 3.595 0 5.203 3.057 5.203 6.086a7.695 7.695 0 0 1-1.392 4.595 4.813 4.813 0 0 1-1.996 1.589 4.802 4.802 0 0 1-3.59.002 4.801 4.801 0 0 1-2.032-1.585 7.704 7.704 0 0 1-1.398-4.604m10.5 5.237a.283.283 0 0 1-.145-.41 8.828 8.828 0 0 0 1.28-4.817c0-4.31-2.645-7.316-6.43-7.316-3.786 0-6.43 3.006-6.43 7.309a8.832 8.832 0 0 0 1.279 4.824c.044.072.053.16.024.24a.28.28 0 0 1-.17.17c-2.838 1.02-5.054 2.735-5.648 4.368a.611.611 0 0 0 .1.616c4.884 5.976 13.727 6.871 19.713 2a13.988 13.988 0 0 0 2-1.997.614.614 0 0 0 .104-.614c-.618-1.64-2.845-3.355-5.677-4.373"/>
    </g>
</svg>
