<svg xmlns="http://www.w3.org/2000/svg" xmlns:xlink="http://www.w3.org/1999/xlink" width="28" height="28" viewBox="0 0 28 28">
    <defs>
        <path id="a" d="M0 0h28v20.687H0z"/>
        <path id="c" d="M.728.369h5.855v5.853H.728z"/>
        <path id="e" d="M.045.369h5.854v5.853H.045z"/>
    </defs>
    <g fill="none" fill-rule="evenodd">
        <mask id="b" fill="#fff">
            <use xlink:href="#a"/>
        </mask>
        <path fill="#FFF" d="M26.654 8.162L24.767 18.72c-.067.4-.385.655-.574.655H10.38c-.292 0-.511-.246-.578-.68L7.404 7.062H26.08c.202 0 .344.142.411.227.176.22.241.542.163.873m.866-1.686c-.364-.46-.888-.724-1.44-.724H7.134L6.3 1.699C6.05.7 5.287 0 4.443 0H.656a.655.655 0 1 0 0 1.31h3.787c.198 0 .48.284.579.68l3.49 16.936c.155 1.036.924 1.76 1.867 1.76h13.814c.884 0 1.703-.769 1.866-1.742l1.878-10.515a2.31 2.31 0 0 0-.417-1.953" mask="url(#b)"/>
        <g transform="translate(7.778 21.778)">
            <mask id="d" fill="#fff">
                <use xlink:href="#c"/>
            </mask>
            <path fill="#FFF" d="M3.656 5.028a1.734 1.734 0 0 1-1.733-1.732c0-.956.777-1.733 1.733-1.733.956 0 1.733.777 1.733 1.733 0 .955-.777 1.732-1.733 1.732m0-4.66A2.931 2.931 0 0 0 .728 3.297a2.931 2.931 0 0 0 2.928 2.926 2.93 2.93 0 0 0 2.927-2.926A2.93 2.93 0 0 0 3.656.369" mask="url(#d)"/>
        </g>
        <g transform="translate(20.222 21.778)">
            <mask id="f" fill="#fff">
                <use xlink:href="#e"/>
            </mask>
            <path fill="#FFF" d="M2.972 5.028A1.734 1.734 0 0 1 1.24 3.296c0-.956.777-1.733 1.733-1.733.955 0 1.732.777 1.732 1.733 0 .955-.777 1.732-1.732 1.732m0-4.66A2.93 2.93 0 0 0 .045 3.297a2.93 2.93 0 0 0 2.927 2.926A2.93 2.93 0 0 0 5.9 3.296 2.93 2.93 0 0 0 2.972.369" mask="url(#f)"/>
        </g>
    </g>
</svg>
