<svg xmlns="http://www.w3.org/2000/svg" xmlns:xlink="http://www.w3.org/1999/xlink" width="19" height="14" viewBox="0 0 19 14">
    <defs>
        <path id="a" d="M0 .219h18.56V14H0z"/>
    </defs>
    <g fill="none" fill-rule="evenodd">
        <g transform="translate(0 -.219)">
            <mask id="b" fill="#fff">
                <use xlink:href="#a"/>
            </mask>
            <path fill="#FFF" d="M17.379 12.106a.698.698 0 0 1-.713.714H1.894a.698.698 0 0 1-.713-.714V2.114c0-.406.306-.713.713-.713h14.772c.406 0 .713.307.713.713v9.992zM16.666.219H1.894C.85.219 0 1.069 0 2.114v9.992C0 13.15.85 14 1.894 14h14.772c1.045 0 1.895-.85 1.895-1.895V2.114c0-1.045-.85-1.895-1.895-1.895z" mask="url(#b)"/>
        </g>
        <path fill="#FFF" d="M16.202 10.134l-3.309-3.36 3.296-3.115a.628.628 0 0 0 .2-.447.638.638 0 0 0-1.08-.483L9.716 8.018c-.27.255-.614.257-.878.007L3.254 2.732a.641.641 0 1 0-.884.927l3.29 3.12-3.299 3.35a.64.64 0 0 0 .437 1.102h.01a.64.64 0 0 0 .443-.18l.018-.018L6.59 7.66l1.36 1.287a1.922 1.922 0 0 0 2.646 0l1.367-1.292 3.325 3.375a.64.64 0 0 0 .932-.878l-.018-.018z"/>
    </g>
</svg>
