<svg xmlns="http://www.w3.org/2000/svg" xmlns:xlink="http://www.w3.org/1999/xlink" width="19" height="19" viewBox="0 0 19 19">
    <defs>
        <path id="a" d="M0 .74H18.23V19H0z"/>
    </defs>
    <g fill="none" fill-rule="evenodd">
        <path fill="#FFF" d="M9.108 12.149a3.04 3.04 0 1 1 0-6.08 3.04 3.04 0 0 1 0 6.08m0-7.721a4.68 4.68 0 1 0 0 9.36 4.68 4.68 0 0 0 0-9.36M13.974 3.164a1.092 1.092 0 1 0 0 2.183 1.092 1.092 0 0 0 0-2.183"/>
        <g transform="translate(0 -.74)">
            <mask id="b" fill="#fff">
                <use xlink:href="#a"/>
            </mask>
            <path fill="#FFF" d="M16.527 13.536h-.012a5.058 5.058 0 0 1-.315 1.708 3.02 3.02 0 0 1-1.733 1.733 5.024 5.024 0 0 1-1.69.315c-.961.043-1.232.055-3.7.055-2.466 0-2.72 0-3.7-.055a5.025 5.025 0 0 1-1.69-.315 3.012 3.012 0 0 1-1.738-1.733 5.049 5.049 0 0 1-.315-1.689c-.043-.962-.055-1.234-.055-3.7 0-2.467 0-2.72.055-3.7a5.035 5.035 0 0 1 .315-1.709 3.012 3.012 0 0 1 1.739-1.733 5.049 5.049 0 0 1 1.69-.314c.96-.043 1.233-.055 3.7-.055s2.72 0 3.7.055a5.048 5.048 0 0 1 1.689.314A3.022 3.022 0 0 1 16.2 4.446c.2.541.307 1.113.315 1.69.043.962.055 1.233.055 3.7s0 2.732-.043 3.7m1.646-7.406a6.676 6.676 0 0 0-.425-2.245 4.665 4.665 0 0 0-2.664-2.664A6.672 6.672 0 0 0 12.87.796C11.896.752 11.588.74 9.115.74s-2.788 0-3.756.056a6.677 6.677 0 0 0-2.214.425A4.665 4.665 0 0 0 .48 3.885 6.704 6.704 0 0 0 .055 6.1C.012 7.073 0 7.382 0 9.854c0 2.474 0 2.788.054 3.756.016.757.16 1.506.426 2.214a4.662 4.662 0 0 0 2.664 2.664 6.668 6.668 0 0 0 2.214.456c.975.044 1.283.056 3.756.056s2.787 0 3.755-.056a6.672 6.672 0 0 0 2.214-.425 4.665 4.665 0 0 0 2.664-2.664c.266-.709.41-1.457.425-2.214.043-.975.056-1.283.056-3.755 0-2.474 0-2.788-.056-3.756" mask="url(#b)"/>
        </g>
    </g>
</svg>
