<svg xmlns="http://www.w3.org/2000/svg" xmlns:xlink="http://www.w3.org/1999/xlink" width="11" height="15" viewBox="0 0 11 15">
    <defs>
        <path id="a" d="M0 .161h10.226v14.838H0z"/>
    </defs>
    <g fill="none" fill-rule="evenodd">
        <g transform="translate(0 -.161)">
            <mask id="b" fill="#fff">
                <use xlink:href="#a"/>
            </mask>
            <path fill="#FFF" d="M5.27 13.75c-.047.078-.11.094-.156.094a.173.173 0 0 1-.157-.095C2.58 9.683 1.173 6.51 1.173 5.273a3.945 3.945 0 0 1 3.94-3.94 3.944 3.944 0 0 1 3.94 3.94c0 1.237-1.407 4.41-3.784 8.476M5.114.162A5.116 5.116 0 0 0 0 5.274c0 1.893 2.143 5.974 3.94 9.053.25.422.688.672 1.174.672.484 0 .923-.25 1.173-.671 3.266-5.598 3.94-8.021 3.94-9.054A5.115 5.115 0 0 0 5.112.16" mask="url(#b)"/>
        </g>
        <path fill="#FFF" d="M5.113 6.489a1.367 1.367 0 0 1-1.376-1.376c0-.766.61-1.376 1.376-1.376.766 0 1.376.61 1.376 1.376 0 .767-.61 1.376-1.376 1.376m0-3.925a2.55 2.55 0 0 0 0 5.098 2.55 2.55 0 0 0 0-5.098"/>
    </g>
</svg>
