<svg width="750" height="300" xmlns="http://www.w3.org/2000/svg" xmlns:svg="http://www.w3.org/2000/svg">
    <g>
        <title>Layer 1</title>
        <path fill="#fd3c3d" id="svg_1" d="m478.903757,213.537332c-4,2.6 -7.9,5.7 -11.9,8.4c-4.3,2.8 -7.4,4.7 -12.2,6.6c-5,2 -8.3,4.4 -13.6,5.3c-5.7,1 -11.2,1.6 -16.9,-0.2c-5.3,-1.7 -7.3,-7.3 -9.2,-12.1c-2.5,-6 -1.7,-11.9 -0.3,-18.1c2.4,-10.9 5.4,-21.5 8.6,-32.2c1.7,-5.6 2.9,-11.3 4.2,-17.1c1.4,-6.4 4.1,-12.4 5.1,-18.8c0.5,-3.2 2.4,-9.3 -1.5,-10.9c-3.5,-1.4 -10.6,2 -12.1,5.1c-2.3,4.6 -2.8,11.6 -3.9,16.7c-1.4,6.6 -1.4,13.4 -2.5,20.1c-2,12.3 -5.7,24.1 -6.8,36.6c-1.1,12.7 -4.9,25.1 -6.4,37.8c-1.3,11.1 -3.4,22.9 -11.6,31c-7.9,7.8 -18.4,10.4 -29.2,8.6c-8.4,-1.4 -18.2,-8.8 -19.1,-17.8c-0.6,-5.9 -0.8,-13.8 0.4,-19.6c1.1,-5.3 4.1,-10.2 5.6,-15.4c3.3,-11.3 5.6,-23 8.8,-34.4c1.6,-5.6 4.2,-11 5.6,-16.6c1.2,-4.8 1.7,-9.4 3.4,-14.3c1.9,-5.5 3.3,-10.7 4.4,-16.4c1.2,-6.1 3.7,-11.5 4.8,-17.6c1.2,-6.8 3.9,-13.1 6.1,-19.6c1.7,-5.2 2,-10.6 3.8,-15.8c2.3,-6.6 4.3,-12.9 3.9,-20c-0.2,-3.2 0.2,-3.1 -2.7,-4.1c-2.6,-0.9 -7.6,-0.3 -10.3,0c-5.5,0.7 -7,3.7 -11,7c-5.3,4.4 -9.9,5.6 -16.9,5.8c-7.3,0.2 -14.6,0.2 -21.8,0.2c-2.9,0 -20.7,-2.3 -21.4,-0.4c5.3,2.8 12.5,1.7 18.4,1.7c7.4,0 14.1,-0.2 20.7,3.4c5.2,2.8 6.8,5.7 7.7,11.8c0.6,4.1 -0.7,12.3 -4.1,15.3c-9,8.2 -28.8,5.9 -40,6.6c-1.9,0.1 -8.3,-0.7 -9.7,0.7c-2.2,2 0.3,3.3 2.1,3.9c3,1 7.2,-0.3 10.3,-0.4c4,-0.2 8.1,0 12.1,0.3c10.4,0.7 27.8,-0.8 33.2,10c5.5,11.1 2.7,23.3 -7.4,30.2c-4.5,3 -10.5,2.8 -15.7,3.1c-8.2,0.6 -16.4,0.9 -24.6,1.1c-6.8,0.2 -13.7,0.1 -20.5,0.3c-2.1,0.1 -7.1,-0.2 -8.8,1.4c-2.1,1.8 -1.4,6 -1.4,8.5c0.1,14.4 3.3,28.4 5.4,42.6c1.5,10.4 4.7,27.6 -1.1,37.2c-2.4,4 -5,9.1 -8,12.7c-4.4,5.3 -9.8,6.4 -15.8,8.7c-5.8,2.2 -10.3,6.5 -16.8,7.1c-7.4,0.7 -12.6,-4.2 -19.2,-6.4c-12.1,-4 -24.5,-7.5 -36.3,-12.6c-5.8,-2.5 -12.1,-4.1 -18.1,-6.3c-5.8,-2.2 -11.8,-4.4 -17.7,-6.4c-5.6,-2 -11.9,-4.2 -17.6,-5.7c-7.3,-1.9 -12.3,1.3 -18.9,3.7c-11.6,4.3 -23,9.1 -34.7,12.8c-11.3,3.6 -22,8.8 -33.1,12.7c-3,1 -5.7,1.3 -8.6,2.7c-2.2,1 -5.1,3.4 -7.7,2.5c-5.6,-1.9 -4.2,-8.6 -0.4,-11.3c10.4,-7.3 23.9,-9.7 35.7,-14.1c5.6,-2.1 11.1,-4.1 16.7,-6.2c3.3,-1.2 6.4,-2.8 9.6,-4.2c3.1,-1.4 6.2,-1.7 9.4,-2.9c11.4,-4.4 23.1,-11.9 35.7,-7.7c11.2,3.8 22.9,7.3 33.8,11.9c11.5,5 23.6,7.8 35.3,12.3c4.9,1.9 9.6,3.4 14.5,5c6.1,1.9 11.8,6.1 18.3,6.8c5.9,0.6 10.4,-2.3 15.4,-5c5.2,-2.8 8.7,-3.5 12.4,-8.2c3.3,-4.2 5,-8.1 6.3,-13.4c1.6,-6.6 -0.9,-13.2 -1.7,-19.9c-1.5,-13.6 -3.4,-27.1 -5.1,-40.7c-1.4,-11.2 -3.3,-27 11.7,-29.5c13.3,-2.2 28.2,-0.5 41.6,-0.8c8.5,-0.2 30.6,1.1 27.9,-12.7c-1.1,-5.9 -6.9,-5.9 -11.8,-6.4c-6.8,-0.6 -13.6,-1.1 -20.5,-1.3c-11.1,-0.3 -24.9,3.2 -29.4,-10.6c-3.8,-11.5 10.2,-18.4 19.3,-18.5c7,-0.1 14.1,-0.3 21.1,-0.6c4.6,-0.2 14.6,1.1 14.5,-5.9c0,-6.3 -7.9,-5.4 -12.1,-5.5c-7.7,-0.3 -15.3,0.3 -22.9,-0.8c-5.7,-0.8 -9.9,-3 -12.5,-8.6c-1.8,-3.7 -1.2,-8.5 1.2,-11.7c3.8,-5.2 7.4,-5.9 13.5,-5.9c7.6,-0.1 15.2,0 22.7,0c6.8,0 13.5,0.1 20.3,0.1c7.7,-0.1 9,-4.8 15,-8.6c8.6,-5.4 24.5,-5.3 32.4,0.6c8.7,6.5 5.4,20.2 1.9,29.2c-2.1,5.5 -2.5,11 -4.3,16.5c-2.3,7.3 -4.8,14.1 -6.2,21.6c-1.1,5.8 -3.9,11.2 -5.2,17c-1.5,6.6 -2.9,12.7 -5.1,19.2c-4.4,12.6 -6.6,26 -10.4,38.8c-3.7,12.6 -7.8,25.1 -11.1,37.8c-1.4,5.5 -3,12.5 -2.2,18.1c0.8,6 3.1,7.7 8.6,9.2c13.9,3.8 23.3,-7.6 25.5,-20.2c5,-27.6 9.4,-55.4 13.8,-83.2c1,-6.6 2.1,-13.2 3.2,-19.7c1.1,-6.2 1.5,-13.5 3.9,-19.4c4.2,-10.3 17.9,-15 28.2,-12.1c13,3.6 12.7,16.1 8.9,26.9c-4.3,12.3 -7.6,25.8 -10.5,38.5c-2.7,12 -7.3,23.5 -6.8,36.1c0.6,14 16.1,6.2 23.9,2.6c5,-2.3 10.8,-4.6 14.9,-8.4c4.6,-4.3 4.3,-12.3 4.8,-18.1c1.4,-15.3 1.3,-30.7 1.4,-46c0,-7 0.1,-14 0.1,-21c0,-5.6 -1.6,-14.2 2.2,-18.9c3.6,-4.6 10.5,-3.7 15.7,-4c7.4,-0.4 14.9,-1 22.3,-1.2c3.9,-0.1 10.3,0.1 12.9,3.7c2.9,4 1.2,11.1 0.4,15.4c-2,10.6 -4.6,21.5 -9.5,31.2c-2.7,5.4 -3.2,10.6 -5.1,16.2c-2,5.9 -4.5,11.4 -6.2,17.4c-3.3,11.4 -9.3,21.7 -12.9,33c-1.8,5.6 -4.2,10.8 -6.1,16.3c-1.5,4.4 -4.6,10 -2.4,14.6c2.5,5.1 8.6,4.4 13.5,4.6c6,0.2 15.1,1.2 19.9,-3.3c3.6,-3.3 5.5,-11.1 7,-15.8c1.9,-6.1 3.2,-12.2 5.3,-18.3c0.9,-2.6 5.3,-11.6 2.6,-13.7c-1.6,-1.3 -7,-0.2 -8.9,-0.4c-3.1,-0.4 -3.9,-0.8 -5.9,-3.3c-3.9,-5 -3,-10 -1.3,-15.7c1.8,-6 2.9,-12.1 4.8,-18.1c1.7,-5.3 3.4,-10.9 5.2,-16.1c1.3,-3.8 5,-10 8.3,-12.1c4.6,-3 12.4,0.3 16.8,-2.6c4,-2.6 5.5,-14.7 6.6,-19.2c1.4,-5.4 3.3,-10.5 5.1,-15.7c2.1,-6.2 3.3,-12.7 6.7,-18.4c2.7,-4.6 7.5,-7.6 13.2,-4.4c3.9,2.3 5.4,11.4 6.8,15.5c2,5.9 2.6,11.9 4.9,17.7c2.4,6.2 4.5,12.3 4.8,19c0.5,13.5 -12.5,13.2 -22.7,14.7c-5,0.7 -11.4,0.2 -14.2,4.9c-3.3,5.6 -3.5,12.7 -5.3,18.7c-1.7,5.6 -3.9,10.8 -5,16.6c-0.5,2.4 -1.4,3.7 0.4,5c1.8,1.3 8.4,0.1 10.6,0.1c11.8,0.2 21.5,4.8 27.6,15c5.1,8.6 10.4,17.7 15.9,26c2.8,4.2 5.7,8.6 8.7,12.6c3.7,4.9 6,10.3 10,15.1c2.8,3.3 6,5.6 9.3,8.4c3.8,3.2 8.7,6.8 12.9,9.3c4,2.4 8.4,5.5 12.8,6.8c6.2,1.8 11.5,0.3 17.6,-1.1c10.4,-2.3 15.5,-10.8 22.5,-17.5c7.2,-6.9 15.2,-14.8 21,-23.3c7.9,-11.6 2.1,-21.6 -7.7,-29.4c-3.8,-3.1 -6.9,-7 -10.4,-10.6c-5.1,-5.2 -10.6,-10 -15.8,-15.1c-18.9,-18.5 -37.4,-37.7 -56.4,-56.3c-5.4,-5.2 -6.9,-8.9 -8.7,-16.1c-1.8,-7.5 -3.3,-14.8 -4.4,-22.5c-0.9,-5.7 -2.8,-11.5 -4.3,-17c-1.7,-6.1 -2.4,-12.2 -3.8,-18.3c-1.4,-6.1 -3.5,-11.9 -4.5,-18.1c-0.8,-5.2 -1.4,-10.9 -7.3,-12.9c-5.3,-1.8 -13,-1.8 -18.7,-2.6c-6.1,-0.8 -12.6,-3.1 -16.2,2.9c-2.7,4.5 -3.7,9.8 -4.9,14.9c-1.3,5.6 -4.4,10.6 -6.1,16.2c-3.5,12 -7.6,24.3 -14.1,35c-2.8,4.6 -6.6,7.2 -12.2,5.7c-5.9,-1.5 -6.4,-6.1 -7.4,-11.4c-1,-5.6 -2.4,-14.6 -5.5,-19.4c-2.8,-4.4 -11.6,-2.4 -16.3,-2.4c-6.7,0 -13.3,0.1 -20,0.1c-2.1,0 -7.7,-0.9 -9.4,0.3c-1.6,1.2 -2.2,5 -2.8,6.8c-3.8,11.2 -5.4,27 -19.4,29.6c-6,1.1 -13.6,0.1 -19.7,-0.6c-4.6,-0.5 -10.5,-3.2 -11.4,-8.3c-1.1,-5.9 1.4,-13.7 3,-19.4c1.4,-4.9 2.6,-11.1 7.2,-14c5.2,-3.3 12.1,-4.4 18.1,-4.8c4.1,-0.3 12.2,1.1 15.4,-2c2.7,-2.5 2.6,-11.3 3.6,-14.8c1.2,-4.3 5.6,-11 0.2,-12.5c-5,-1.4 -12.6,0.3 -17.7,0.4c-7.5,0.2 -14.8,0.9 -22.3,2.1c-14.2,2.4 -28.7,2.5 -42.8,4.7c-2.8,0.4 -8.1,0.7 -10.5,2.1c-2.2,1.4 -4.1,5 -5.2,7.2c-2.8,5.9 -4.5,8.9 -9.6,13c-9.1,7.4 -25.2,1.7 -35.9,-0.3c-6.8,-1.3 -13.6,-1.6 -20.4,-2.4c-4.3,-0.5 -12.3,-3.1 -15.6,1c-2.8,3.4 -3.6,12.1 -4.4,16.3c-1.3,6.7 -2.5,13.4 -4.2,20c-3.2,12.5 -5.3,25 -8.4,37.5c-2.6,10.6 -4.2,28.9 -19.7,22.1c-5,-2.2 -10,-4.2 -14.9,-6.6c-5.5,-2.8 -11.4,-3.9 -14.9,-9.1c-6.7,-10 2.3,-19.6 7.2,-28.7c2.4,-4.4 5.1,-8.5 7.3,-12.9c1.1,-2.1 2.9,-3.6 4,-5.6c1.1,-1.9 1.4,-4.1 2.5,-6.1c2.1,-4 5.7,-8.1 5.2,-13c-0.4,-3.9 -5.4,-9.9 -7.8,-12.9c-2.6,-3.1 -5.5,-6.5 -8.6,-9c-1.9,-1.5 -2.8,-4.1 -4.6,-5.4c-2.2,-1.6 -8.3,-0.7 -10.8,-0.7c-14.6,-0.2 -29.2,-0.4 -43.8,-0.7c-3.7,-0.1 -11.2,-1.7 -14.7,0.4c-2.9,1.8 -2.8,7.4 -3.6,10.5c-3.4,13.4 -4.8,26.9 -8.4,40.2c-1.7,6.5 -3.2,12.6 -3.7,19.3c-0.1,1.8 -1.2,7.1 -0.3,8.7c1.2,2.1 4.4,0.8 6.4,0.6c6.3,-0.8 12.7,-1 19,-2.3c2.1,-0.4 5.8,-0.8 7.2,-2.8c1.8,-2.5 0.8,-8.1 1.4,-11.2c1.8,-10.1 7.8,-23.8 19.9,-22.6c10,1 20.6,11.4 17.1,22c-3.3,9.9 -11.2,22.1 -22.3,23.6c-6.3,0.8 -7,1 -7.8,7.3c-1,7.4 -2.3,14.7 -3.7,22c-0.4,2 -2,6.3 -1.5,8.3c0.8,2.9 2.5,2.5 5.2,3.6c2.4,1 4.1,2.4 6.3,3.6c2.7,1.5 5.8,2.2 8.6,3.7c9.4,4.9 19.1,9.6 28.3,14.7c8.5,4.7 19.1,8.5 23.8,17.6c2.7,5.2 4.5,12.1 2.4,17.8c-2.8,7.5 -6.8,7.9 -13.9,8c-13.4,0.1 -27,-6.4 -39.1,-11.8c-10.1,-4.4 -21.5,-6.8 -31,-12.8c-12.2,-7.8 -7.6,-16.5 -5.6,-28.5c1.2,-7.2 -0.6,-9.6 -7.5,-12.3c-2.4,-0.9 -4.8,-1.2 -7.2,-2.4c-2.4,-1.1 -5.5,-3.8 -8.2,-3.8c-5.2,-0.1 -4.5,7.5 -5.1,11.3c-1.1,7 -2.3,14 -3,21.1c-0.7,7 -0.6,14.3 -1.8,21.2c-1.1,6 -5.5,9.5 -10,13.3c-8.3,6.9 -20.8,8.3 -30.4,13.1c-10.6,5.3 -22.2,7.9 -32.9,12.7c-5.2,2.3 -10.2,4.6 -15.4,6.8c-4.9,2 -10.5,7.1 -16.2,6.3c-5.6,-0.7 -6.2,-5.3 -3.2,-9.2c3.7,-4.9 10.7,-6.2 15.9,-9c4.6,-2.5 9.8,-3.3 14.5,-5.7c5.6,-2.9 11.4,-4.1 17,-6.8c5.4,-2.6 11.1,-3.8 16.5,-6.6c5.3,-2.7 10.8,-4.3 16.2,-6.5c4.1,-1.7 11.5,-3.3 14,-7.2c3.2,-5 2.5,-14.4 3.2,-20.1c0.8,-6.5 2,-12.9 2.8,-19.4c0.7,-6 -0.5,-14.3 2.6,-19.7c2,-3.4 7.8,-7.1 11.5,-7.9c5.5,-1.1 12.9,2.8 18.1,4.5c3.8,1.3 9.6,8 12.5,3.9c3,-4.3 2.6,-14.7 3,-19.8c0.1,-1 1.5,-6.9 1,-7.6c-1.3,-1.7 -5.4,-0.3 -7.1,-0.1c-7.3,1 -14.8,2.3 -22.2,2.2c-16,-0.4 -12.1,-20.1 -10,-30.9c1.2,-6.5 3.5,-12.7 4.6,-19.2c1.3,-7.3 2.1,-14.7 3.7,-22c2.2,-9.7 2.5,-24.5 10.7,-31.6c3.9,-3.4 13.2,-1.5 17.9,-1.5c7.3,0.1 14.7,0.1 22,0.2c7.1,0.1 14.2,0.2 21.3,0.2c6.4,0 13.6,-0.7 19.4,2.1c10.1,4.8 18.5,17.1 24.3,26.2c2.8,4.5 5.9,8 6,13.5c0.1,6.2 -3.6,10.5 -5.9,16c-2.1,5 -5,9.8 -7.8,14.4c-1.3,2.2 -3.2,4.2 -4.4,6.5c-1.2,2.4 -1.9,4.9 -3.4,7.2c-2.2,3.4 -7.6,9.4 -6.2,13.7c1.7,5.2 10.7,6.8 14.8,8.8c5.2,2.6 7.1,4.6 9.1,-2.1c2,-6.8 2.9,-13.4 4.2,-20.4c1.1,-6.2 2.8,-12.5 4.5,-18.5c1.7,-6.2 2.3,-12.3 3.8,-18.5c1.5,-5.9 3,-11.8 4.1,-17.8c1.2,-6.4 2.8,-9.8 7.2,-14.6c2.3,-2.5 1.8,-2.7 5.6,-3.4c3.1,-0.5 6.4,-0.7 9.5,-0.5c6.6,0.5 13.3,0.7 19.8,2.1c6.8,1.4 13.5,3 20.4,4c4.4,0.6 14.7,2.9 17.8,-0.6c1,-1.1 2.1,-3.5 3.1,-4.8c1.5,-1.9 2,-3.1 2.7,-5.3c2.3,-7 6.6,-9 13.5,-11c13.1,-3.8 27,-3.9 40.5,-5.1c14,-1.3 27.7,-4.5 41.7,-5.3c10.9,-0.6 25.3,-3.2 28.1,10.6c1.4,6.9 -9.8,25.7 -4.9,29.7c1.2,1 6,0.1 7.6,0.1c3.6,0 7.1,0 10.7,0c7,0 14.4,-0.6 21.3,0.4c14.5,2.2 13.4,16.3 18.3,27c2.6,-1.6 2.4,-4.5 3.4,-7.2c1,-3 2.8,-5.6 3.9,-8.5c2.5,-6.9 5.1,-13.9 7.6,-20.9c2.5,-7 4.9,-14.6 7,-21.7c2.1,-7.2 5.5,-11.9 13.8,-11.9c7.7,0 15.8,1.3 23.4,2.1c5.8,0.6 15.4,1.3 20.1,5.1c4.6,3.7 7.8,10.8 8.6,16.5c1.1,8.1 2.2,15.6 4.4,23.6c1.9,6.8 2.8,13.8 4.7,20.7c2,7.6 4.3,14.9 5.2,22.7c0.8,6.9 2.1,15.7 6.6,21.3c3.7,4.5 9.2,8.1 13.1,12.3c8.2,8.9 16.8,16.8 25.7,25.4c8.4,8.1 15.6,16.6 24.2,24.2c4.6,4.1 8.6,8.9 13,13.2c5.1,4.9 10.9,9.5 15.2,15c4.2,5.3 7.2,9.1 8.8,15.9c2,8.2 -1.5,12.2 -5.9,18.5c-7.3,10.4 -16,19.6 -24,29c-3,3.6 -7.2,6.3 -10.5,9.5c-5.4,5.2 -10.3,7.8 -17.5,10.6c-12.8,5 -25.7,2.2 -36.7,-5.1c-10.2,-6.8 -19.7,-14.2 -28.6,-22.9c-8.5,-8.3 -13.2,-20.8 -20.3,-30.3c-3.8,-5.1 -7,-11 -10.1,-16.3c-2.6,-4.3 -6.5,-11.9 -10.8,-14.7c-5.6,-3.8 -16.8,-1.8 -23.3,-1.7c-5.1,0.1 -4.4,0.4 -5.7,4.9c-1.4,4.7 -3.5,9.3 -5.1,13.9c-4.4,12.5 -4.8,34.6 -18.3,41.4c-7.9,3.9 -18.3,3.5 -26.8,3.1c-7.4,-0.3 -17.4,-1.2 -22.1,-7.7c-4.2,-5.8 -3.6,-11.9 -1.6,-18.2c1.2,-3.7 2.2,-7.4 3.8,-11c2,-2.8 7.2,-10.6 4.9,-13.4zm1,-2.2c2.1,0.1 5,-9.8 5.5,-11.5c1.2,-4.4 3.4,-8 5,-12.3c1.5,-4.1 1.9,-8.1 3.6,-12.2c2,-4.6 4.1,-8.9 5.1,-13.8c1.6,-7.7 4.6,-16.3 7.7,-23.6c1.8,-4.3 4,-8.5 5.3,-13.1c0.6,-2.1 3.3,-10.5 1.7,-12.5c-1.9,-2.3 -9.6,-0.4 -12.2,-0.2c-3.7,0.2 -13.9,-0.9 -16.3,2c-2.4,2.9 -1.2,10.6 -1.3,14.1c-0.1,5.4 -0.2,10.7 -0.3,16.1c-0.3,12 -0.5,24 -0.8,36c-0.1,5.3 -0.1,10.7 -0.6,16c-0.5,5.1 -2.4,10 -2.4,15zm-246.4,0.5c-0.2,-6.7 -8.6,-10.3 -13.4,-13.1c-5.6,-3.3 -11.6,-5.8 -17.2,-9.1c-6,-3.4 -12.4,-6 -18.7,-8.9c-3.5,-1.6 -6.2,-4.2 -9.9,-5.6c-3.7,-1.3 -5.4,-2.4 -6.9,1.3c-2,5.2 -4.8,15.2 1.8,17.7c3.6,1.4 6.5,1.4 10,3.5c4.1,2.3 7.8,3.1 12.2,4.7c3.9,1.4 7.5,3.9 11.5,5.3c3.9,1.3 7.3,2 11.2,3.8c3.6,1.6 19.4,7.5 19.4,0.4zm193,-131.1c0.7,0.2 0.4,3.6 2,4.5c2.6,1.6 10.9,0.6 13.6,-0.2c5.9,-1.7 8,-11.9 9.7,-17.3c0.9,-2.9 1.2,-4.2 -1.3,-5.5c-2,-1.1 -11.4,0.6 -13.8,1.1c-8.1,1.7 -8.5,10.7 -10.2,17.4zm104.9,107.7c5.9,-0.3 5.9,-1.6 6.9,-6.8c1,-5.5 3.4,-10.7 5.2,-15.9c1.5,-4.6 2.1,-9.3 3.5,-13.9c1.4,-4.5 3.1,-7.3 -2.8,-5.6c-5.5,1.6 -5.5,2.6 -7.4,7.9c-1.5,4.2 -3.4,8.2 -4.7,12.5c-1.5,5 -2.7,10 -4.2,15c-1.5,4.9 -2.5,6.8 3.5,6.8zm36.3,-57.8c4.7,-0.6 9.6,-1 14.3,-2c4.5,-0.9 3.6,-2.6 3.1,-6.9c-0.5,-4 -1.9,-7.3 -3.2,-11.2c-1.4,-4.2 -1.9,-8.8 -4.3,-12.5c-3.9,3.7 -5.3,10.8 -6.4,15.9c-0.4,1.8 -5.2,16.7 -3.5,16.7zm-387.1,-22.7c5.6,-0.9 6.5,-2 9.2,-6.8c2,-3.4 6.1,-7.7 2.9,-11.2c-9.5,-10.4 -11.8,13.6 -12.1,18z"/>
    </g>
</svg>