<svg xmlns="http://www.w3.org/2000/svg" xmlns:xlink="http://www.w3.org/1999/xlink" width="92" height="23" viewBox="0 0 92 23">
    <defs>
        <path id="a" d="M0 .024h91.651V23H0z"/>
    </defs>
    <g fill="none" fill-rule="evenodd">
        <mask id="b" fill="#fff">
            <use xlink:href="#a"/>
        </mask>
        <path fill="#FFF" d="M89.867 18.32c-.118 1.717-.559 2.575-1.324 2.575-.289 0-.523-.145-.701-.434-.179-.288-.361-.818-.548-1.588L85.56 11.35l4.563-3.862.178-.895h-5.633l-.432 2.103h1.708l-4.87 4.021L83.678.024h-6.143L77.1 2.127h2.829l-3.231 15.72c-.098.03-.205.048-.325.048-.135 0-.264-.083-.382-.25-.119-.167-.179-.443-.179-.828 0-.298.034-.614.102-.947l1.963-9.277h-3.365l-.357 1.735a4.098 4.098 0 0 0-1.553-1.472c-.647-.349-1.385-.524-2.218-.524A6.68 6.68 0 0 0 66.5 7.539a8.12 8.12 0 0 0-1.63 1.501h-5.464l1.149-5.517h-3.492l-1.07 5.517h-1.803c-.072-1.054-.319-2.288-1-3.177-.882-1.157-2.487-1.787-4.56-1.787-1.511 0-2.874.295-4.09.882-1.214.586-2.165 1.384-2.852 2.392a5.751 5.751 0 0 0-1.034 3.323c0 .824.226 1.49.676 1.997.45.509.994.885 1.632 1.13.637.245 1.48.5 2.534.763.917.21 1.648.415 2.192.617.543.202.998.485 1.363.853s.548.85.548 1.447c0 .84-.301 1.62-.905 2.338-.604.718-1.719 1.077-3.35 1.077-2.786 0-4.179-1.243-4.179-3.732 0-.49.067-1.085.202-1.786h-2.038c-.12.761-.174 1.418-.18 1.996-.147.347-.427.522-.843.522-.136 0-.265-.083-.383-.25-.12-.167-.178-.443-.178-.828 0-.298.034-.614.103-.947l1.961-9.277h-3.364l-.356 1.735a4.102 4.102 0 0 0-1.555-1.472c-.645-.349-1.384-.524-2.216-.524a6.674 6.674 0 0 0-3.886 1.207c-1.164.808-2.077 1.88-2.74 3.22a9.516 9.516 0 0 0-.995 4.271c0 .283.021.55.05.81h-2.673c-.035.597-.124 1.09-.268 1.476-.146.385-.437.579-.88.579-.136 0-.261-.083-.381-.25-.119-.167-.179-.443-.179-.828 0-.298.034-.614.102-.947l.56-2.706c.256-1.243.382-2.303.382-3.18 0-1.243-.253-2.163-.764-2.76-.508-.595-1.292-.892-2.344-.892-.934 0-1.818.28-2.65.84-.832.561-1.546 1.35-2.14 2.365-.07-1.086-.352-1.891-.854-2.417-.502-.527-1.245-.788-2.23-.788-.8 0-1.563.21-2.294.63-.73.42-1.392 1.017-1.987 1.786l.433-2.155H.44L.004 8.696h2.828L0 23h3.312l1.865-9.573c.205-.982.498-1.853.88-2.615.381-.761.81-1.35 1.288-1.76.475-.412.949-.617 1.426-.617.917 0 1.377.7 1.377 2.101 0 .614-.113 1.49-.332 2.628l-1.35 6.568h3.311l1.3-6.305c.204-.982.497-1.853.879-2.615.382-.761.811-1.35 1.287-1.76.476-.412.95-.617 1.427-.617.917 0 1.377.7 1.377 2.101 0 .614-.113 1.49-.332 2.628l-.458 2.18c-.154.737-.23 1.367-.23 1.894 0 1.034.263 1.752.79 2.153.526.403 1.283.606 2.267.606 1.002 0 1.771-.163 2.307-.486a2.52 2.52 0 0 0 1.11-1.367c.02-.062.037-.134.056-.2h1.864c.16.262.349.504.563.726.858.884 2.026 1.327 3.505 1.327.917 0 1.8-.21 2.65-.631a7.822 7.822 0 0 0 2.291-1.734c.068.894.357 1.51.869 1.853.508.34 1.229.512 2.164.512.817 0 1.48-.11 1.987-.325.192.604.453 1.076.719 1.512.694 1.133 2.66 1.814 4.97 1.814 1.614 0 3.05-.293 4.305-.88 1.258-.588 2.239-1.42 2.944-2.497.704-1.078 1.057-2.317 1.057-3.718 0-.946-.247-1.695-.738-2.247a4.372 4.372 0 0 0-1.784-1.21c-.695-.252-1.597-.494-2.701-.722-.866-.193-1.54-.372-2.026-.538a3.52 3.52 0 0 1-1.223-.697c-.33-.298-.497-.693-.497-1.183 0-.42.117-.87.356-1.353.238-.481.653-.897 1.25-1.249.594-.35 1.393-.525 2.395-.525 1.24 0 2.179.308 2.816.92.637.614.956 1.472.956 2.575 0 .473-.052.943-.155 1.468h3.465l-1.478 7.174a6.993 6.993 0 0 0-.179 1.498c0 .965.264 1.643.79 2.037.527.394 1.266.59 2.217.59 1.07 0 1.889-.175 2.459-.525.568-.35.964-.835 1.186-1.458.22-.62.347-1.432.38-2.43h-1.782c-.087 1.542-.476 2.312-1.173 2.312-.17 0-.315-.083-.433-.25-.119-.167-.177-.433-.177-.8 0-.212.042-.535.125-.974l1.48-7.174h4.612a9.479 9.479 0 0 0-.818 3.888c0 1.543.427 2.754 1.285 3.64.858.884 2.027 1.327 3.504 1.327.917 0 1.801-.21 2.65-.631a7.815 7.815 0 0 0 2.294-1.734c.067.894.357 1.51.866 1.853.51.34 1.232.512 2.166.512.735 0 1.343-.09 1.825-.265h2.265l.842-4.072 2.293-1.945 1.223 5.158c.273 1.208.51 2.067.713 2.574.205.508.523.894.956 1.156.433.263 1.092.395 1.976.395 1.357 0 2.347-.385 2.967-1.157.62-.77.973-1.944 1.058-3.52h-1.784zm-54.723-5.419l-.127.631c-.305 1.226-.845 2.26-1.618 3.1-.773.842-1.669 1.263-2.688 1.263-.764 0-1.359-.272-1.784-.816-.424-.542-.637-1.296-.637-2.26 0-.998.187-1.993.562-2.982.372-.99.89-1.805 1.554-2.443.66-.64 1.417-.96 2.268-.96.815 0 1.448.285 1.897.855.45.568.675 1.352.675 2.351 0 .472-.034.893-.102 1.261zm38.071 0l-.128.631c-.307 1.226-.846 2.26-1.618 3.1-.773.842-1.669 1.263-2.69 1.263-.763 0-1.358-.272-1.782-.816-.425-.542-.637-1.296-.637-2.26 0-.998.187-1.993.56-2.982.374-.99.892-1.805 1.554-2.443.662-.64 1.42-.96 2.268-.96.816 0 1.449.285 1.9.855.45.568.673 1.352.673 2.351 0 .472-.033.893-.1 1.261z" mask="url(#b)"/>
        <path fill="#FFF" d="M69.16 5c-.024.012-.16-.216-.16-.222.934.07 4.108-3.358 4.108-3.358.267-.22.526-.354.776-.4a.89.89 0 0 1 .656.109c.19.12.328.312.416.58.13.454-.037 1.154-.354 1.481C73.527 4.3 71.86 4.877 69.16 5"/>
    </g>
</svg>
