<svg xmlns="http://www.w3.org/2000/svg" xmlns:xlink="http://www.w3.org/1999/xlink" width="16" height="16" viewBox="0 0 16 16">
    <defs>
        <path id="a" d="M.821 0H9v7.979H.82z"/>
    </defs>
    <g fill="none" fill-rule="evenodd">
        <path fill="#FFF" d="M13.578 13.347a.138.138 0 0 0-.023.026c-.371.533-.867.93-1.476 1.183a7.503 7.503 0 0 1-.44.162 7.814 7.814 0 0 1-2.156-.417 11.976 11.976 0 0 1-2.615-1.264 11.156 11.156 0 0 1-2.504-2.25 14.959 14.959 0 0 1-1.76-2.686 16.967 16.967 0 0 1-1.24-3.252.143.143 0 0 0-.007-.046 1.284 1.284 0 0 1 .095-.93c.239-.455.578-.847.984-1.153.12-.061.24-.107.37-.143a.66.66 0 0 1 .186-.03c.148 0 .28.064.417.2.619.59 1.247 1.204 1.88 1.828.069.07.103.15.107.24-.408.54-.85 1.076-1.312 1.592a.62.62 0 0 0-.132.623c.157.458.355.927.587 1.394.35.708.817 1.358 1.39 1.93a6.86 6.86 0 0 0 3.312 1.848.649.649 0 0 0 .584-.131l1.298-1.077.07-.065a.189.189 0 0 0 .046-.026c.035-.03.07-.056.109-.084.005.003.01.004.013.005a.17.17 0 0 1 .054.019 51.156 51.156 0 0 1 2.12 2.07c.135.144.147.277.043.434zm.925-1.293a56.354 56.354 0 0 0-2.216-2.171 1.406 1.406 0 0 0-.58-.296 1.193 1.193 0 0 0-1.006.113 2.902 2.902 0 0 0-.334.246l-1.13.936A5.576 5.576 0 0 1 6.87 9.46a6.029 6.029 0 0 1-1.15-1.59 11.343 11.343 0 0 1-.401-.905 26.18 26.18 0 0 0 1.189-1.462c.14-.194.212-.442.2-.715a1.499 1.499 0 0 0-.46-1.072.236.236 0 0 0-.032-.045c-.62-.616-1.255-1.234-1.886-1.837-.547-.532-1.16-.692-1.906-.482-.22.06-.43.145-.634.253A4.706 4.706 0 0 0 .282 3.298a2.542 2.542 0 0 0-.188 1.848A17.758 17.758 0 0 0 1.44 8.69a16.089 16.089 0 0 0 1.92 2.918 12.681 12.681 0 0 0 2.797 2.5 12.953 12.953 0 0 0 2.868 1.38c.014.01.03.017.045.023a9.05 9.05 0 0 0 2.615.488.698.698 0 0 0 .205-.026c.229-.065.466-.15.702-.246a4.601 4.601 0 0 0 2.062-1.66c.49-.706.44-1.383-.15-2.012l-.002-.002z"/>
        <g transform="translate(7)">
            <mask id="b" fill="#fff">
                <use xlink:href="#a"/>
            </mask>
            <path fill="#FFF" d="M1.627.019a.64.64 0 0 0-.5.08.618.618 0 0 0-.286.397.635.635 0 0 0 .491.768c3.658.812 5.8 2.892 6.368 6.184.03.17.118.308.264.41a.652.652 0 0 0 .49.112.636.636 0 0 0 .423-.256.614.614 0 0 0 .114-.478C8.35 3.388 5.87.959 1.627.019" mask="url(#b)"/>
        </g>
        <path fill="#FFF" d="M12.288 8.008a.654.654 0 0 0 .9-.197.601.601 0 0 0 .088-.48c-.582-2.537-2.153-4.068-4.67-4.55a.67.67 0 0 0-.494.096.634.634 0 0 0-.277.409.612.612 0 0 0 .099.483.65.65 0 0 0 .419.267c1.963.383 3.19 1.585 3.644 3.572.04.17.138.305.29.4"/>
    </g>
</svg>
