<svg xmlns="http://www.w3.org/2000/svg" xmlns:xlink="http://www.w3.org/1999/xlink" width="20" height="20" viewBox="0 0 20 20">
    <defs>
        <path id="a" d="M0 0h20v19.994H0z"/>
    </defs>
    <g fill="none" fill-rule="evenodd">
        <mask id="b" fill="#fff">
            <use xlink:href="#a"/>
        </mask>
        <path fill="#FFF" d="M14.164 14.38a7.628 7.628 0 0 1-5.47 2.3 7.63 7.63 0 0 1-5.472-2.3c-3.01-3.056-3.01-8.028 0-11.085a7.63 7.63 0 0 1 5.472-2.3c2.067 0 4.01.817 5.47 2.3 3.01 3.057 3.01 8.03 0 11.085zm1.212.133l.277-.374c2.584-3.493 2.235-8.46-.813-11.552A8.568 8.568 0 0 0 8.694 0a8.565 8.565 0 0 0-6.147 2.587c-3.396 3.446-3.396 9.055 0 12.502 3.196 3.246 8.222 3.484 11.692.557l.385-.325 4.453 4.52a.546.546 0 0 0 .76-.002.57.57 0 0 0 .003-.794l-4.464-4.532z" mask="url(#b)"/>
    </g>
</svg>
