<svg xmlns="http://www.w3.org/2000/svg" xmlns:xlink="http://www.w3.org/1999/xlink" width="20" height="12" viewBox="0 0 20 12">
    <defs>
        <path id="a" d="M0 0h20v11.878H0z"/>
    </defs>
    <g fill="none" fill-rule="evenodd">
        <mask id="b" fill="#fff">
            <use xlink:href="#a"/>
        </mask>
        <path fill="#FFF" d="M19.541.804c.14-.463 0-.804-.662-.804h-2.188c-.556 0-.813.294-.952.618 0 0-1.112 2.712-2.688 4.474-.51.51-.742.673-1.02.673-.139 0-.34-.163-.34-.626V.804c0-.556-.163-.804-.627-.804H7.627C7.28 0 7.07.258 7.07.503c0 .527.79.65.87 2.133v3.221c0 .707-.127.835-.406.835-.74 0-2.546-2.724-3.616-5.842-.21-.606-.42-.85-.979-.85H.75C.125 0 0 .294 0 .618c0 .58.741 3.455 3.453 7.256 1.81 2.596 4.356 4.004 6.674 4.004 1.391 0 1.563-.313 1.563-.85V9.064c0-.626.131-.75.573-.75.324 0 .88.161 2.178 1.413 1.484 1.484 1.728 2.15 2.563 2.15h2.188c.625 0 .938-.313.757-.93-.197-.615-.905-1.507-1.845-2.564-.51-.602-1.276-1.25-1.507-1.577-.325-.417-.232-.602 0-.973 0 0 2.666-3.755 2.944-5.03" mask="url(#b)"/>
    </g>
</svg>
